<svg xmlns="http://www.w3.org/2000/svg" viewBox="0 0 1000 320" width="1000" height="320" role="img" aria-label="Jose Nicolas Sanchez Zorrilla - Software Engineer  //  Developer tools, AI agents &amp; embedded systems"><defs><radialGradient id="bg" cx="50%" cy="40%" r="80%"><stop offset="0%" stop-color="#0a1f33"/><stop offset="60%" stop-color="#071524"/><stop offset="100%" stop-color="#040d18"/></radialGradient><linearGradient id="trace" x1="0" y1="0" x2="1" y2="0"><stop offset="0%" stop-color="#2dd4bf"/><stop offset="100%" stop-color="#38bdf8"/></linearGradient><filter id="glow" x="-50%" y="-50%" width="200%" height="200%"><feGaussianBlur stdDeviation="2.2" result="b"/><feMerge><feMergeNode in="b"/><feMergeNode in="SourceGraphic"/></feMerge></filter><pattern id="grid" width="28" height="28" patternUnits="userSpaceOnUse"><path d="M28 0H0V28" fill="none" stroke="#0e2a45" stroke-width="1"/></pattern></defs>
    <style>
      .draw{stroke-dasharray:1400;stroke-dashoffset:1400;animation:draw 2.6s ease forwards;}
      .flow{stroke-dasharray:6 22;stroke-dashoffset:0;animation:flow 1.4s linear infinite;}
      @keyframes draw{to{stroke-dashoffset:0;}}
      @keyframes flow{to{stroke-dashoffset:-280;}}
      .via{animation:pulse 2.8s ease-in-out infinite;transform-origin:center;}
      @keyframes pulse{0%,100%{opacity:.45;r:3;}50%{opacity:1;r:5;}}
      .led{animation:blink 1.6s steps(1) infinite;}
      @keyframes blink{0%,49%{opacity:1;}50%,100%{opacity:.15;}}
      .pin{animation:sweep 3.2s ease-in-out infinite;}
      @keyframes sweep{0%,100%{opacity:.25;}50%{opacity:1;}}
      .fade{opacity:0;animation:fade 1s ease forwards;}
      .fade2{opacity:0;animation:fade 1s ease .5s forwards;}
      .fade3{opacity:0;animation:fade 1s ease 1s forwards;}
      @keyframes fade{to{opacity:1;}}
      .cur{animation:cur 1.1s steps(1) infinite;}
      @keyframes cur{0%,49%{opacity:1;}50%,100%{opacity:0;}}
      text{font-family:'Segoe UI',Helvetica,Arial,sans-serif;}
      .mono{font-family:'Cascadia Code','Consolas',ui-monospace,monospace;}
    </style>
    <rect width="1000" height="320" rx="16" fill="url(#bg)"/><rect width="1000" height="320" rx="16" fill="url(#grid)" opacity="0.6"/><rect x="3" y="3" width="994" height="314" rx="14" fill="none" stroke="#2dd4bf" stroke-width="1.5" opacity="0.5"/><path d="M40,60 L160,60 L210,110 L210,210 L150,270" fill="none" stroke="url(#trace)" stroke-width="2.4" stroke-linecap="round" stroke-linejoin="round" opacity="0.55" class="draw"/><path d="M40,150 L120,150 L150,180 L300,180" fill="none" stroke="url(#trace)" stroke-width="2.4" stroke-linecap="round" stroke-linejoin="round" opacity="0.55" class="draw"/><path d="M40,250 L100,250 L140,210 L260,210" fill="none" stroke="url(#trace)" stroke-width="2.4" stroke-linecap="round" stroke-linejoin="round" opacity="0.55" class="draw"/><path d="M960,70 L840,70 L800,110 L800,250 L860,300" fill="none" stroke="url(#trace)" stroke-width="2.4" stroke-linecap="round" stroke-linejoin="round" opacity="0.55" class="draw"/><path d="M960,160 L880,160 L850,190 L700,190" fill="none" stroke="url(#trace)" stroke-width="2.4" stroke-linecap="round" stroke-linejoin="round" opacity="0.55" class="draw"/><path d="M960,260 L900,260 L860,220 L740,220" fill="none" stroke="url(#trace)" stroke-width="2.4" stroke-linecap="round" stroke-linejoin="round" opacity="0.55" class="draw"/><path d="M500,300 L500,250 L470,220 L470,170" fill="none" stroke="url(#trace)" stroke-width="2.4" stroke-linecap="round" stroke-linejoin="round" opacity="0.55" class="draw"/><path d="M620,300 L620,260 L650,230 L650,180" fill="none" stroke="url(#trace)" stroke-width="2.4" stroke-linecap="round" stroke-linejoin="round" opacity="0.55" class="draw"/><path d="M40,60 L160,60 L210,110 L210,210 L150,270" fill="none" stroke="#bdf6ff" stroke-width="2.4" stroke-linecap="round" filter="url(#glow)" class="flow"/><path d="M40,150 L120,150 L150,180 L300,180" fill="none" stroke="#bdf6ff" stroke-width="2.4" stroke-linecap="round" filter="url(#glow)" class="flow"/><path d="M40,250 L100,250 L140,210 L260,210" fill="none" stroke="#bdf6ff" stroke-width="2.4" stroke-linecap="round" filter="url(#glow)" class="flow"/><path d="M960,70 L840,70 L800,110 L800,250 L860,300" fill="none" stroke="#bdf6ff" stroke-width="2.4" stroke-linecap="round" filter="url(#glow)" class="flow"/><path d="M960,160 L880,160 L850,190 L700,190" fill="none" stroke="#bdf6ff" stroke-width="2.4" stroke-linecap="round" filter="url(#glow)" class="flow"/><path d="M960,260 L900,260 L860,220 L740,220" fill="none" stroke="#bdf6ff" stroke-width="2.4" stroke-linecap="round" filter="url(#glow)" class="flow"/><path d="M500,300 L500,250 L470,220 L470,170" fill="none" stroke="#bdf6ff" stroke-width="2.4" stroke-linecap="round" filter="url(#glow)" class="flow"/><path d="M620,300 L620,260 L650,230 L650,180" fill="none" stroke="#bdf6ff" stroke-width="2.4" stroke-linecap="round" filter="url(#glow)" class="flow"/><circle cx="160" cy="60" r="3" fill="#fbbf24" class="via" filter="url(#glow)"/><circle cx="210" cy="210" r="3" fill="#fbbf24" class="via" filter="url(#glow)"/><circle cx="300" cy="180" r="3" fill="#fbbf24" class="via" filter="url(#glow)"/><circle cx="260" cy="210" r="3" fill="#fbbf24" class="via" filter="url(#glow)"/><circle cx="840" cy="70" r="3" fill="#fbbf24" class="via" filter="url(#glow)"/><circle cx="700" cy="190" r="3" fill="#fbbf24" class="via" filter="url(#glow)"/><circle cx="740" cy="220" r="3" fill="#fbbf24" class="via" filter="url(#glow)"/><circle cx="470" cy="170" r="3" fill="#fbbf24" class="via" filter="url(#glow)"/><circle cx="650" cy="180" r="3" fill="#fbbf24" class="via" filter="url(#glow)"/><circle cx="120" cy="150" r="3" fill="#fbbf24" class="via" filter="url(#glow)"/><circle cx="880" cy="160" r="3" fill="#fbbf24" class="via" filter="url(#glow)"/><circle cx="900" cy="260" r="3" fill="#fbbf24" class="via" filter="url(#glow)"/><g class="fade2"><rect x="740" y="70" width="150" height="96" rx="8" fill="#0c2236" stroke="#2dd4bf" stroke-width="1.5"/><rect x="730" y="84" width="10" height="6" fill="#fbbf24" class="pin" style="animation-delay:0.00s"/><rect x="890" y="84" width="10" height="6" fill="#fbbf24" class="pin" style="animation-delay:0.40s"/><rect x="730" y="97" width="10" height="6" fill="#fbbf24" class="pin" style="animation-delay:0.18s"/><rect x="890" y="97" width="10" height="6" fill="#fbbf24" class="pin" style="animation-delay:0.58s"/><rect x="730" y="110" width="10" height="6" fill="#fbbf24" class="pin" style="animation-delay:0.36s"/><rect x="890" y="110" width="10" height="6" fill="#fbbf24" class="pin" style="animation-delay:0.76s"/><rect x="730" y="123" width="10" height="6" fill="#fbbf24" class="pin" style="animation-delay:0.54s"/><rect x="890" y="123" width="10" height="6" fill="#fbbf24" class="pin" style="animation-delay:0.94s"/><rect x="730" y="136" width="10" height="6" fill="#fbbf24" class="pin" style="animation-delay:0.72s"/><rect x="890" y="136" width="10" height="6" fill="#fbbf24" class="pin" style="animation-delay:1.12s"/><rect x="730" y="149" width="10" height="6" fill="#fbbf24" class="pin" style="animation-delay:0.90s"/><rect x="890" y="149" width="10" height="6" fill="#fbbf24" class="pin" style="animation-delay:1.30s"/><circle cx="756" cy="86" r="5" fill="none" stroke="#38bdf8" stroke-width="1.5"/><text x="774" y="92" fill="#e2f1f8" class="mono" font-size="13" letter-spacing="1">JNSZ-01</text><text x="758" y="134" fill="#2dd4bf" class="mono" font-size="10" opacity="0.7">core: TypeScript</text></g><circle cx="58" cy="36" r="5" fill="#22c55e" class="led" filter="url(#glow)"/><text x="72" y="40" fill="#e2f1f8" class="mono" font-size="12" opacity="0.8">online</text><text x="60" y="148" fill="#e2f1f8" font-size="40" font-weight="700" letter-spacing="0.5" class="fade">Jose Nicolas Sanchez Zorrilla</text><text x="62" y="184" fill="#fbbf24" class="mono fade2" font-size="20" font-weight="600" letter-spacing="3">aka NIKO . VANETTI</text><g class="fade3"><text x="62" y="224" fill="#2dd4bf" class="mono" font-size="14" opacity="0.85">Software Engineer  //  Developer tools, AI agents &amp; embedded systems</text><text x="62" y="258" fill="#e2f1f8" class="mono" font-size="14" opacity="0.9">&gt; building<tspan fill="#e2f1f8"> _</tspan><tspan class="cur" fill="#fbbf24">|</tspan></text></g></svg>