<svg xmlns="http://www.w3.org/2000/svg" viewBox="0 0 1000 230" width="1000" height="230" role="img" aria-label="Language distribution">
    <style>
      @keyframes grow{from{width:0;}}
      @keyframes fin{from{opacity:0;transform:translateY(6px);}to{opacity:1;transform:translateY(0);}}
      .seg{animation:grow 1.4s cubic-bezier(.2,.7,.2,1) forwards;}
      .lg{opacity:0;animation:fin .6s ease forwards;}
      .via{animation:vp 2.6s ease-in-out infinite;transform-origin:center;}
      @keyframes vp{0%,100%{opacity:.4;}50%{opacity:1;}}
      text{font-family:'Cascadia Code','Consolas',ui-monospace,monospace;}
    </style>
    <rect width="1000" height="230" rx="16" fill="#071524"/><rect x="2" y="2" width="996" height="226" rx="15" fill="none" stroke="#0e2a45" stroke-width="1.5"/><circle cx="18" cy="18" r="3.5" fill="#2dd4bf" class="via" style="animation-delay:0s"/><circle cx="982" cy="18" r="3.5" fill="#2dd4bf" class="via" style="animation-delay:0.6s"/><circle cx="18" cy="212" r="3.5" fill="#2dd4bf" class="via" style="animation-delay:1.2s"/><circle cx="982" cy="212" r="3.5" fill="#2dd4bf" class="via" style="animation-delay:0.3s"/><text x="28" y="44" fill="#e2f1f8" font-size="18" font-weight="700" letter-spacing="2">DISTRIBUCIÓN DE LENGUAJES</text><text x="972" y="44" fill="#2dd4bf" font-size="12" text-anchor="end" opacity="0.8">// calculado desde todos mis repos</text><rect x="28" y="88" width="944" height="26" rx="13" fill="#0b2236"/><clipPath id="barclip"><rect x="28" y="88" width="944" height="26" rx="13"/></clipPath><g clip-path="url(#barclip)"><rect x="28.0" y="88" width="441.8" height="26" fill="#3178c6" class="seg" style="animation-delay:0.00s"><title>TypeScript 46.8%</title></rect><rect x="469.8" y="88" width="126.5" height="26" fill="#f1e05a" class="seg" style="animation-delay:0.12s"><title>JavaScript 13.4%</title></rect><rect x="596.3" y="88" width="111.4" height="26" fill="#555555" class="seg" style="animation-delay:0.24s"><title>C 11.8%</title></rect><rect x="707.7" y="88" width="100.1" height="26" fill="#f34b7d" class="seg" style="animation-delay:0.36s"><title>C++ 10.6%</title></rect><rect x="807.7" y="88" width="85.9" height="26" fill="#e34c26" class="seg" style="animation-delay:0.48s"><title>HTML 9.1%</title></rect><rect x="893.6" y="88" width="42.5" height="26" fill="#3572A5" class="seg" style="animation-delay:0.60s"><title>Python 4.5%</title></rect><rect x="936.1" y="88" width="26.4" height="26" fill="#563d7c" class="seg" style="animation-delay:0.72s"><title>CSS 2.8%</title></rect><rect x="962.6" y="88" width="3.8" height="26" fill="#6b7280" class="seg" style="animation-delay:0.84s"><title>PLpgSQL 0.4%</title></rect></g><g class="lg" style="animation-delay:0.40s"><rect x="28.0" y="143" width="12" height="12" rx="3" fill="#3178c6"/><text x="48.0" y="154" fill="#cfe3f0" font-size="13">TypeScript</text><text x="250.0" y="154" fill="#7aa0b8" font-size="13" text-anchor="end">46.8%</text></g><g class="lg" style="animation-delay:0.48s"><rect x="264.0" y="143" width="12" height="12" rx="3" fill="#f1e05a"/><text x="284.0" y="154" fill="#cfe3f0" font-size="13">JavaScript</text><text x="486.0" y="154" fill="#7aa0b8" font-size="13" text-anchor="end">13.4%</text></g><g class="lg" style="animation-delay:0.56s"><rect x="500.0" y="143" width="12" height="12" rx="3" fill="#555555"/><text x="520.0" y="154" fill="#cfe3f0" font-size="13">C</text><text x="722.0" y="154" fill="#7aa0b8" font-size="13" text-anchor="end">11.8%</text></g><g class="lg" style="animation-delay:0.64s"><rect x="736.0" y="143" width="12" height="12" rx="3" fill="#f34b7d"/><text x="756.0" y="154" fill="#cfe3f0" font-size="13">C++</text><text x="958.0" y="154" fill="#7aa0b8" font-size="13" text-anchor="end">10.6%</text></g><g class="lg" style="animation-delay:0.72s"><rect x="28.0" y="173" width="12" height="12" rx="3" fill="#e34c26"/><text x="48.0" y="184" fill="#cfe3f0" font-size="13">HTML</text><text x="250.0" y="184" fill="#7aa0b8" font-size="13" text-anchor="end">9.1%</text></g><g class="lg" style="animation-delay:0.80s"><rect x="264.0" y="173" width="12" height="12" rx="3" fill="#3572A5"/><text x="284.0" y="184" fill="#cfe3f0" font-size="13">Python</text><text x="486.0" y="184" fill="#7aa0b8" font-size="13" text-anchor="end">4.5%</text></g><g class="lg" style="animation-delay:0.88s"><rect x="500.0" y="173" width="12" height="12" rx="3" fill="#563d7c"/><text x="520.0" y="184" fill="#cfe3f0" font-size="13">CSS</text><text x="722.0" y="184" fill="#7aa0b8" font-size="13" text-anchor="end">2.8%</text></g><g class="lg" style="animation-delay:0.96s"><rect x="736.0" y="173" width="12" height="12" rx="3" fill="#6b7280"/><text x="756.0" y="184" fill="#cfe3f0" font-size="13">PLpgSQL</text><text x="958.0" y="184" fill="#7aa0b8" font-size="13" text-anchor="end">0.4%</text></g></svg>